<svg width="56" height="64" viewBox="0 0 56 64" fill="none" xmlns="http://www.w3.org/2000/svg">
<path d="M55.145 0L50.1211 57.5933L27.5387 64L5.01853 57.6023L0 0H55.145Z" fill="#264DE4"/>
<path d="M45.8202 53.926L50.1134 4.70984H27.5725V59.103L45.8202 53.926Z" fill="#2965F1"/>
<path d="M11.5049 26.0737L12.1236 33.1383H27.5725V26.0737H11.5049Z" fill="#EBEBEB"/>
<path d="M27.5725 11.7747H27.5486H10.2616L10.8892 18.8394H27.5725V11.7747Z" fill="#EBEBEB"/>
<path d="M27.5724 51.7717V44.4215L27.5422 44.4297L19.8536 42.3052L19.3621 36.6708H15.6261H12.432L13.3992 47.7633L27.5406 51.7807L27.5724 51.7717Z" fill="#EBEBEB"/>
<path d="M36.0496 33.1384L35.2482 42.3008L27.5486 44.4274V51.7774L41.7013 47.7634L41.8051 46.5699L43.4274 27.9708L43.5958 26.0738L44.8421 11.7747H27.5486V18.8394H37.2764L36.6482 26.0738H27.5486V33.1384H36.0496Z" fill="white"/>
</svg>
