<svg width="128" height="114" viewBox="0 0 128 114" fill="none" xmlns="http://www.w3.org/2000/svg">
<g clip-path="url(#clip0_68_2)">
<path d="M64 68.3506C70.3009 68.3506 75.4087 63.2427 75.4087 56.9419C75.4087 50.641 70.3009 45.5332 64 45.5332C57.6992 45.5332 52.5913 50.641 52.5913 56.9419C52.5913 63.2427 57.6992 68.3506 64 68.3506Z" fill="#61DAFB"/>
<path d="M64 80.3158C97.8094 80.3158 125.217 69.851 125.217 56.9419C125.217 44.0328 97.8094 33.568 64 33.568C30.1906 33.568 2.78259 44.0328 2.78259 56.9419C2.78259 69.851 30.1906 80.3158 64 80.3158Z" stroke="#61DAFB"/>
<path d="M43.7576 68.6289C60.6623 97.9087 83.4291 116.412 94.6087 109.958C105.788 103.503 101.147 74.5348 84.2424 45.255C67.3376 15.9751 44.5708 -2.52844 33.3913 3.92609C22.2117 10.3806 26.8528 39.349 43.7576 68.6289Z" stroke="#61DAFB"/>
<path d="M43.7576 45.2549C26.8529 74.5348 22.2117 103.503 33.3913 109.958C44.5709 116.412 67.3377 97.9087 84.2424 68.6289C101.147 39.349 105.788 10.3806 94.6087 3.92608C83.4291 -2.52845 60.6623 15.9751 43.7576 45.2549Z" stroke="#61DAFB"/>
</g>
<defs>
<clipPath id="clip0_68_2">
<rect width="128" height="113.884" fill="white"/>
</clipPath>
</defs>
</svg>
