<svg width="198" height="212" viewBox="0 0 198 212" fill="none" xmlns="http://www.w3.org/2000/svg">
<rect width="198" height="198" rx="25" transform="matrix(1 0 0 -1 0 212)" fill="#181818"/>
<path d="M146.739 35L116.739 17.6795L116.739 52.3205L146.739 35ZM174 69.2528L174 77.2317H180L180 69.2528H174ZM174 93.1896V109.147H180V93.1896H174ZM174 125.105V141.063H180V125.105H174ZM174 157.021V165H180V157.021H174ZM174 165C174 167.989 173.406 170.831 172.332 173.421L177.874 175.719C179.245 172.413 180 168.791 180 165H174ZM160.421 185.332C157.831 186.406 154.989 187 152 187V193C155.791 193 159.413 192.245 162.719 190.874L160.421 185.332ZM152 187H145.375V193H152V187ZM132.125 187H118.875V193H132.125V187ZM105.625 187H92.375V193H105.625V187ZM79.125 187H65.875V193H79.125V187ZM52.625 187H46V193H52.625V187ZM46 187C43.0115 187 40.1693 186.406 37.5795 185.332L35.2811 190.874C38.5867 192.245 42.209 193 46 193V187ZM25.6682 173.421C24.5942 170.831 24 167.989 24 165H18C18 168.791 18.7551 172.413 20.1258 175.719L25.6682 173.421ZM24 165V158.438H18V165H24ZM24 145.313V132.188H18V145.313H24ZM24 119.063V105.938H18V119.063H24ZM24 92.8125V79.6875H18V92.8125H24ZM24 66.5625V60H18V66.5625H24ZM24 60C24 57.0115 24.5942 54.1693 25.6682 51.5795L20.1258 49.2811C18.7551 52.5867 18 56.209 18 60H24ZM37.5795 39.6682C40.1693 38.5942 43.0115 38 46 38V32C42.209 32 38.5867 32.7551 35.2812 34.1258L37.5795 39.6682ZM46 38H52.2962V32H46V38ZM64.8886 38H77.481V32H64.8886V38ZM90.0734 38H102.666V32H90.0734V38ZM115.258 38H127.851V32H115.258V38ZM146.739 35L86.7391 0.358984L86.7391 69.641L146.739 35ZM171 69.2528L171 77.2317H183L183 69.2528H171ZM171 93.1896V109.147H183V93.1896H171ZM171 125.105V141.063H183V125.105H171ZM171 157.021V165H183V157.021H171ZM171 165C171 167.587 170.486 170.039 169.561 172.271L180.645 176.868C182.165 173.205 183 169.192 183 165H171ZM159.271 182.561C157.039 183.486 154.587 184 152 184V196C156.192 196 160.205 195.165 163.868 193.645L159.271 182.561ZM152 184H145.375V196H152V184ZM132.125 184H118.875V196H132.125V184ZM105.625 184H92.375V196H105.625V184ZM79.125 184H65.875V196H79.125V184ZM52.625 184H46V196H52.625V184ZM46 184C43.4127 184 40.9606 183.486 38.7286 182.561L34.132 193.645C37.7954 195.165 41.8077 196 46 196V184ZM28.4394 172.271C27.5138 170.039 27 167.587 27 165H15C15 169.192 15.8355 173.205 17.3547 176.868L28.4394 172.271ZM27 165V158.438H15V165H27ZM27 145.313V132.188H15V145.313H27ZM27 119.063V105.938H15V119.063H27ZM27 92.8125V79.6875H15V92.8125H27ZM27 66.5625V60H15V66.5625H27ZM27 60C27 57.4127 27.5138 54.9606 28.4394 52.7286L17.3547 48.132C15.8355 51.7954 15 55.8077 15 60H27ZM38.7286 42.4394C40.9606 41.5138 43.4127 41 46 41V29C41.8077 29 37.7955 29.8355 34.132 31.3547L38.7286 42.4394ZM46 41H52.2962V29H46V41ZM64.8886 41H77.481V29H64.8886V41ZM90.0734 41H102.666V29H90.0734V41ZM115.258 41H127.851V29H115.258V41Z" fill="#FFCC00"/>
<path d="M127.951 163.024C121.039 163.024 114.681 161.915 108.879 159.696C103.076 157.392 98.0412 154.192 93.7745 150.096C89.5078 145.915 86.1798 141.051 83.7905 135.504C81.4012 129.957 80.2065 123.856 80.2065 117.2C80.2065 110.544 81.4012 104.443 83.7905 98.896C86.1798 93.3493 89.5078 88.528 93.7745 84.432C98.1265 80.2507 103.204 77.0507 109.007 74.832C114.809 72.528 121.209 71.376 128.207 71.376C135.289 71.376 141.775 72.528 147.663 74.832C153.551 77.136 158.543 80.592 162.639 85.2L154.703 93.136C151.033 89.552 147.023 86.9493 142.671 85.328C138.404 83.6213 133.753 82.768 128.719 82.768C123.599 82.768 118.82 83.6213 114.383 85.328C110.031 87.0347 106.233 89.424 102.991 92.496C99.8332 95.568 97.3585 99.2373 95.5665 103.504C93.8598 107.685 93.0065 112.251 93.0065 117.2C93.0065 122.064 93.8598 126.629 95.5665 130.896C97.3585 135.077 99.8332 138.747 102.991 141.904C106.233 144.976 110.031 147.365 114.383 149.072C118.735 150.779 123.471 151.632 128.591 151.632C133.369 151.632 137.935 150.907 142.287 149.456C146.724 147.92 150.82 145.403 154.575 141.904L161.871 151.632C157.433 155.387 152.228 158.245 146.255 160.208C140.367 162.085 134.265 163.024 127.951 163.024ZM149.583 149.968V116.688H161.871V151.632L149.583 149.968Z" fill="#565656"/>
<path d="M67.2335 161.607L27.8095 72.0074H41.6335L77.8575 154.695H69.9215L106.402 72.0074H119.202L79.9055 161.607H67.2335Z" fill="#FFCC00"/>
<rect x="89.4844" y="66" width="17.8952" height="60.763" transform="rotate(23.6 89.4844 66)" fill="#181818"/>
</svg>
