<svg width="38" height="38" viewBox="0 0 38 38" fill="none" xmlns="http://www.w3.org/2000/svg">
<g clip-path="url(#clip0_38_82)">
<path d="M18.9265 0.519531C8.47504 0.519531 0 8.99309 0 19.4461C0 27.8084 5.42302 34.9029 12.9432 37.4055C13.889 37.5807 14.2363 36.9949 14.2363 36.495C14.2363 36.0437 14.2187 34.5527 14.2107 32.9712C8.94514 34.1161 7.83409 30.7381 7.83409 30.7381C6.97315 28.5505 5.73266 27.9689 5.73266 27.9689C4.01553 26.7942 5.86209 26.8182 5.86209 26.8182C7.76269 26.9518 8.76345 28.7687 8.76345 28.7687C10.4515 31.6622 13.191 30.8256 14.2711 30.3421C14.4409 29.1187 14.9315 28.2839 15.4727 27.8113C11.2689 27.3325 6.84965 25.7097 6.84965 18.4576C6.84965 16.3914 7.58902 14.7029 8.79982 13.3775C8.60329 12.9007 7.95551 10.9758 8.98314 8.36876C8.98314 8.36876 10.5725 7.86006 14.1893 10.3088C15.6989 9.88935 17.3181 9.67916 18.9265 9.67204C20.535 9.67916 22.1553 9.88935 23.6679 10.3088C27.2804 7.86006 28.8675 8.36876 28.8675 8.36876C29.8977 10.9758 29.2496 12.9007 29.0531 13.3775C30.2666 14.7029 31.0009 16.3912 31.0009 18.4576C31.0009 25.7269 26.5733 27.3276 22.3588 27.7961C23.0377 28.3835 23.6425 29.5354 23.6425 31.301C23.6425 33.8334 23.6206 35.8716 23.6206 36.495C23.6206 36.9986 23.9612 37.5888 24.9207 37.403C32.4367 34.8975 37.8529 27.8056 37.8529 19.4461C37.8529 8.99309 29.379 0.519531 18.9265 0.519531Z" fill="white" fill-opacity="0.87"/>
<path d="M7.08859 27.4809C7.04702 27.5748 6.89888 27.603 6.76425 27.5386C6.62695 27.4768 6.54976 27.3486 6.59429 27.2542C6.63511 27.1574 6.78325 27.1304 6.92026 27.1954C7.05786 27.257 7.13624 27.3864 7.08859 27.4809ZM8.01959 28.3115C7.92934 28.3952 7.75284 28.3563 7.63306 28.2241C7.50926 28.0921 7.4861 27.9158 7.57769 27.8307C7.67076 27.7472 7.84191 27.7862 7.966 27.9183C8.0898 28.0517 8.11384 28.2271 8.01944 28.3117M8.65831 29.3743C8.54224 29.4549 8.35253 29.3794 8.23541 29.211C8.11949 29.0429 8.11949 28.841 8.23794 28.7601C8.3555 28.6792 8.54224 28.7519 8.66099 28.9189C8.77677 29.0901 8.77677 29.2919 8.65816 29.3745M9.73835 30.6053C9.63459 30.7196 9.41371 30.689 9.25191 30.5329C9.08656 30.3803 9.04039 30.1637 9.14445 30.0493C9.24939 29.9347 9.4716 29.9669 9.63459 30.1217C9.79891 30.274 9.84908 30.4922 9.73849 30.6053M11.1343 31.0209C11.0887 31.1691 10.8758 31.2365 10.6615 31.1735C10.4474 31.1087 10.3073 30.935 10.3505 30.7852C10.395 30.636 10.6088 30.5658 10.8248 30.6332C11.0385 30.6978 11.1789 30.8701 11.1344 31.0209M12.7231 31.1971C12.7285 31.3533 12.5466 31.4827 12.3216 31.4856C12.0952 31.4904 11.9122 31.3641 11.9098 31.2106C11.9098 31.053 12.0875 30.9248 12.3137 30.921C12.5388 30.9166 12.7231 31.042 12.7231 31.1971ZM14.2838 31.1373C14.3108 31.2896 14.1544 31.4461 13.931 31.4876C13.7113 31.5277 13.5079 31.4337 13.4799 31.2828C13.4525 31.1266 13.612 30.9703 13.8312 30.9298C14.0551 30.8909 14.2553 30.9825 14.2838 31.1373Z" fill="white" fill-opacity="0.87"/>
</g>
<defs>
<clipPath id="clip0_38_82">
<rect width="38" height="38" fill="white"/>
</clipPath>
</defs>
</svg>
